<?xml version="1.0" standalone="no"?>
 <!DOCTYPE svg PUBLIC "-//W3C//DTD SVG 1.1//EN" 
 "http://www.w3.org/Graphics/SVG/1.1/DTD/svg11.dtd"> 
<svg
  xmlns:svg="http://www.w3.org/2000/svg"
  xmlns="http://www.w3.org/2000/svg"
  xmlns:xlink="http://www.w3.org/1999/xlink"
  version="1.1"
  width="297.0022mm" height="210.0072mm" viewBox="0.0000 0.0000 297.0022 210.0072">
<title>SVG Image created as chimiqueV0-F_Cu.svg date 2026/04/27 18:46:03 </title>
  <desc>Image generated by PCBNEW </desc>
<g style="fill:#000000; fill-opacity:1.0000;stroke:#000000; stroke-opacity:1.0000;
stroke-linecap:round; stroke-linejoin:round;"
 transform="translate(0 0) scale(1 1)">
<path style="fill:#000000; fill-opacity:1.0000; stroke:none;fill-rule:evenodd;"
d="M 137.0250,99.9450
138.9750,99.9450
138.9750,101.8950
137.0250,101.8950
Z" /> 
</g>
<g style="fill:#000000; fill-opacity:1.0000; stroke:none;">
<circle cx="138.0000" cy="106.0000" r="0.9750" /> 
<path style="fill:#000000; fill-opacity:1.0000; stroke:none;fill-rule:evenodd;"
d="M 190.6540,130.6540
189.3460,130.6540
189.3460,129.3460
190.6540,129.3460
Z" /> 
</g>
<g style="fill:#000000; fill-opacity:1.0000; stroke:none;">
<circle cx="190.0000" cy="132.0000" r="0.6540" /> 
</g>
<g style="fill:#000000; fill-opacity:1.0000; stroke:none;">
<circle cx="190.0000" cy="134.0000" r="0.6540" /> 
</g>
<g style="fill:#000000; fill-opacity:1.0000; stroke:none;">
<circle cx="190.0000" cy="136.0000" r="0.6540" /> 
<path style="fill:#000000; fill-opacity:1.0000; stroke:none;fill-rule:evenodd;"
d="M 137.0250,113.9450
138.9750,113.9450
138.9750,115.8950
137.0250,115.8950
Z" /> 
</g>
<g style="fill:#000000; fill-opacity:1.0000; stroke:none;">
<circle cx="138.0000" cy="120.0000" r="0.9750" /> 
<path style="fill:#000000; fill-opacity:1.0000; stroke:none;fill-rule:evenodd;"
d="M 195.7000,110.5150
195.7000,112.5150
193.7000,112.5150
193.7000,110.5150
Z" /> 
</g>
<g style="fill:#000000; fill-opacity:1.0000; stroke:none;">
<circle cx="194.7000" cy="108.9750" r="1.0000" /> 
</g>
<g style="fill:#000000; fill-opacity:1.0000; stroke:none;">
<circle cx="194.7000" cy="106.4350" r="1.0000" /> 
</g>
<g style="fill:#000000; fill-opacity:1.0000; stroke:none;">
<circle cx="194.7000" cy="103.8950" r="1.0000" /> 
</g>
<g style="fill:#000000; fill-opacity:1.0000; stroke:none;">
<circle cx="194.7000" cy="101.3550" r="1.0000" /> 
</g>
<g style="fill:#000000; fill-opacity:1.0000; stroke:none;">
<circle cx="194.7000" cy="98.8150" r="1.0000" /> 
</g>
<g style="fill:#000000; fill-opacity:1.0000; stroke:none;">
<circle cx="194.7000" cy="96.2750" r="1.0000" /> 
</g>
<g style="fill:#000000; fill-opacity:1.0000; stroke:none;">
<circle cx="194.7000" cy="93.7350" r="1.0000" /> 
</g>
<g style="fill:#000000; fill-opacity:1.0000; stroke:none;">
<circle cx="194.7000" cy="91.1950" r="1.0000" /> 
</g>
<g style="fill:#000000; fill-opacity:1.0000; stroke:none;">
<circle cx="194.7000" cy="88.6550" r="1.0000" /> 
</g>
<g style="fill:#000000; fill-opacity:1.0000; stroke:none;">
<circle cx="194.7000" cy="86.1150" r="1.0000" /> 
</g>
<g style="fill:#000000; fill-opacity:1.0000; stroke:none;">
<circle cx="194.7000" cy="83.5750" r="1.0000" /> 
</g>
<g style="fill:#000000; fill-opacity:1.0000; stroke:none;">
<circle cx="194.7000" cy="81.0350" r="1.0000" /> 
</g>
<g style="fill:#000000; fill-opacity:1.0000; stroke:none;">
<circle cx="194.7000" cy="78.4950" r="1.0000" /> 
</g>
<g style="fill:#000000; fill-opacity:1.0000; stroke:none;">
<circle cx="194.7000" cy="75.9550" r="1.0000" /> 
</g>
<g style="fill:#000000; fill-opacity:1.0000; stroke:none;">
<circle cx="169.3000" cy="75.9550" r="1.0000" /> 
</g>
<g style="fill:#000000; fill-opacity:1.0000; stroke:none;">
<circle cx="169.3000" cy="78.4950" r="1.0000" /> 
</g>
<g style="fill:#000000; fill-opacity:1.0000; stroke:none;">
<circle cx="169.3000" cy="81.0350" r="1.0000" /> 
</g>
<g style="fill:#000000; fill-opacity:1.0000; stroke:none;">
<circle cx="169.3000" cy="83.5750" r="1.0000" /> 
</g>
<g style="fill:#000000; fill-opacity:1.0000; stroke:none;">
<circle cx="169.3000" cy="86.1150" r="1.0000" /> 
</g>
<g style="fill:#000000; fill-opacity:1.0000; stroke:none;">
<circle cx="169.3000" cy="88.6550" r="1.0000" /> 
</g>
<g style="fill:#000000; fill-opacity:1.0000; stroke:none;">
<circle cx="169.3000" cy="91.1950" r="1.0000" /> 
</g>
<g style="fill:#000000; fill-opacity:1.0000; stroke:none;">
<circle cx="169.3000" cy="93.7350" r="1.0000" /> 
</g>
<g style="fill:#000000; fill-opacity:1.0000; stroke:none;">
<circle cx="169.3000" cy="96.2750" r="1.0000" /> 
</g>
<g style="fill:#000000; fill-opacity:1.0000; stroke:none;">
<circle cx="169.3000" cy="98.8150" r="1.0000" /> 
</g>
<g style="fill:#000000; fill-opacity:1.0000; stroke:none;">
<circle cx="169.3000" cy="101.3550" r="1.0000" /> 
</g>
<g style="fill:#000000; fill-opacity:1.0000; stroke:none;">
<circle cx="169.3000" cy="103.8950" r="1.0000" /> 
</g>
<g style="fill:#000000; fill-opacity:1.0000; stroke:none;">
<circle cx="169.3000" cy="106.4350" r="1.0000" /> 
</g>
<g style="fill:#000000; fill-opacity:1.0000; stroke:none;">
<circle cx="169.3000" cy="108.9750" r="1.0000" /> 
</g>
<g style="fill:#000000; fill-opacity:1.0000; stroke:none;">
<circle cx="169.3000" cy="111.5150" r="1.0000" /> 
<path style="fill:#000000; fill-opacity:1.0000; stroke:none;fill-rule:evenodd;"
d="M 168.6500,129.2750
168.6690,129.1793
168.7232,129.0982
168.8043,129.0440
168.9000,129.0250
170.1000,129.0250
170.1957,129.0440
170.2768,129.0982
170.3310,129.1793
170.3500,129.2750
170.3500,130.7250
170.3310,130.8207
170.2768,130.9018
170.1957,130.9560
170.1000,130.9750
168.9000,130.9750
168.8043,130.9560
168.7232,130.9018
168.6690,130.8207
168.6500,130.7250
Z" /> 
</g>
<g style="fill:none; 
stroke:#000000; stroke-width:1.7000; stroke-opacity:1; 
stroke-linecap:round; stroke-linejoin:round;">
<path d="M172.0000 129.8750
L172.0000 130.1250
" />
<path d="M174.5000 129.8750
L174.5000 130.1250
" />
<path d="M177.0000 129.8750
L177.0000 130.1250
" />
<path d="M179.5000 129.8750
L179.5000 130.1250
" />
<path d="M182.0000 129.8750
L182.0000 130.1250
" />
<path style="fill:#000000; fill-opacity:1.0000; stroke:none;fill-rule:evenodd;"
d="M 195.3460,135.3460
196.6540,135.3460
196.6540,136.6540
195.3460,136.6540
Z" /> 
</g>
<g style="fill:#000000; fill-opacity:1.0000; stroke:none;">
<circle cx="196.0000" cy="134.0000" r="0.6540" /> 
</g>
<g style="fill:#000000; fill-opacity:1.0000; stroke:none;">
<circle cx="196.0000" cy="132.0000" r="0.6540" /> 
</g>
<g style="fill:#000000; fill-opacity:1.0000; stroke:none;">
<circle cx="196.0000" cy="130.0000" r="0.6540" /> 
</g>
<g style="fill:#000000; fill-opacity:1.0000; stroke:none;">
<circle cx="148.3800" cy="91.1100" r="0.9900" /> 
</g>
<g style="fill:#000000; fill-opacity:1.0000; stroke:none;">
<circle cx="148.3800" cy="93.6500" r="0.9900" /> 
</g>
<g style="fill:#000000; fill-opacity:1.0000; stroke:none;">
<circle cx="148.3800" cy="96.1900" r="0.9900" /> 
</g>
<g style="fill:#000000; fill-opacity:1.0000; stroke:none;">
<circle cx="148.3800" cy="98.7300" r="0.9900" /> 
</g>
<g style="fill:#000000; fill-opacity:1.0000; stroke:none;">
<circle cx="148.3800" cy="101.2700" r="0.9900" /> 
</g>
<g style="fill:#000000; fill-opacity:1.0000; stroke:none;">
<circle cx="148.3800" cy="103.8100" r="0.9900" /> 
</g>
<g style="fill:#000000; fill-opacity:1.0000; stroke:none;">
<circle cx="148.3800" cy="106.3500" r="0.9900" /> 
</g>
<g style="fill:#000000; fill-opacity:1.0000; stroke:none;">
<circle cx="148.3800" cy="108.8900" r="0.9900" /> 
</g>
<g style="fill:#000000; fill-opacity:1.0000; stroke:none;">
<circle cx="163.6200" cy="108.8900" r="0.9900" /> 
</g>
<g style="fill:#000000; fill-opacity:1.0000; stroke:none;">
<circle cx="163.6200" cy="106.3500" r="0.9900" /> 
</g>
<g style="fill:#000000; fill-opacity:1.0000; stroke:none;">
<circle cx="163.6200" cy="103.8100" r="0.9900" /> 
</g>
<g style="fill:#000000; fill-opacity:1.0000; stroke:none;">
<circle cx="163.6200" cy="101.2700" r="0.9900" /> 
</g>
<g style="fill:#000000; fill-opacity:1.0000; stroke:none;">
<circle cx="163.6200" cy="98.7300" r="0.9900" /> 
</g>
<g style="fill:#000000; fill-opacity:1.0000; stroke:none;">
<circle cx="163.6200" cy="96.1900" r="0.9900" /> 
</g>
<g style="fill:#000000; fill-opacity:1.0000; stroke:none;">
<circle cx="163.6200" cy="93.6500" r="0.9900" /> 
</g>
<g style="fill:#000000; fill-opacity:1.0000; stroke:none;">
<circle cx="163.6200" cy="91.1100" r="0.9900" /> 
<path style="fill:#000000; fill-opacity:1.0000; stroke:none;fill-rule:evenodd;"
d="M 155.2750,78.3500
155.1793,78.3310
155.0982,78.2768
155.0440,78.1957
155.0250,78.1000
155.0250,76.9000
155.0440,76.8043
155.0982,76.7232
155.1793,76.6690
155.2750,76.6500
156.7250,76.6500
156.8207,76.6690
156.9018,76.7232
156.9560,76.8043
156.9750,76.9000
156.9750,78.1000
156.9560,78.1957
156.9018,78.2768
156.8207,78.3310
156.7250,78.3500
Z" /> 
</g>
<g style="fill:none; 
stroke:#000000; stroke-width:1.7000; stroke-opacity:1; 
stroke-linecap:round; stroke-linejoin:round;">
<path d="M155.8750 75.0000
L156.1250 75.0000
" />
<path d="M155.8750 72.5000
L156.1250 72.5000
" />
<path d="M155.8750 70.0000
L156.1250 70.0000
" />
<path d="M155.8750 67.5000
L156.1250 67.5000
" />
<path d="M155.8750 65.0000
L156.1250 65.0000
" />
<path style="fill:#000000; fill-opacity:1.0000; stroke:none;fill-rule:evenodd;"
d="M 203.2460,135.7460
204.7540,135.7460
204.7540,137.2540
203.2460,137.2540
Z" /> 
</g>
<g style="fill:#000000; fill-opacity:1.0000; stroke:none;">
<circle cx="204.0000" cy="134.0000" r="0.7540" /> 
</g>
<g style="fill:#000000; fill-opacity:1.0000; stroke:none;">
<circle cx="204.0000" cy="131.5000" r="0.7540" /> 
</g>
<g style="fill:#000000; fill-opacity:1.0000; stroke:none;">
<circle cx="204.0000" cy="129.0000" r="0.7540" /> 
</g>
<g style="fill:#000000; fill-opacity:1.0000; stroke:none;">
<circle cx="204.0000" cy="126.5000" r="0.7540" /> 
</g>
<g style="fill:#000000; fill-opacity:1.0000; stroke:none;">
<circle cx="204.0000" cy="124.0000" r="0.7540" /> 
</g>
<g style="fill:#000000; fill-opacity:1.0000; stroke:none;">
<circle cx="204.0000" cy="121.5000" r="0.7540" /> 
</g>
<g style="fill:#000000; fill-opacity:1.0000; stroke:none;">
<circle cx="204.0000" cy="119.0000" r="0.7540" /> 
</g>
<g style="fill:#000000; fill-opacity:1.0000; stroke:none;">
<circle cx="194.7000" cy="111.5150" r="0.3000" /> 
</g>
<g style="fill:none; 
stroke:#000000; stroke-width:2.0000; stroke-opacity:1; 
stroke-linecap:round; stroke-linejoin:round;">
<path d="M171.5010 105.5010
L169.8950 103.8950
" />
<path d="M169.8950 103.8950
L169.3000 103.8950
" />
<path d="M196.6234 132.0000
L196.0000 132.0000
" />
<path d="M197.7324 130.8910
L196.6234 132.0000
" />
<path d="M203.1262 130.8910
L197.7324 130.8910
" />
<path d="M208.8100 131.1900
L204.0000 131.1900
" />
<path d="M212.0000 128.0000
L208.8100 131.1900
" />
<path d="M212.0000 80.0000
L212.0000 128.0000
" />
<path d="M204.0000 131.1900
L203.7650 130.9550
" />
<path d="M203.1902 130.9550
L203.1262 130.8910
" />
<path d="M210.4950 78.4950
L212.0000 80.0000
" />
<path d="M203.7650 130.9550
L203.1902 130.9550
" />
<path d="M194.7000 78.4950
L210.4950 78.4950
" />
<path d="M146.0000 124.0000
L148.3800 121.6200
" />
<path d="M138.0000 124.0000
L146.0000 124.0000
" />
<path d="M148.3800 121.6200
L148.3800 108.8900
" />
<path d="M138.8900 91.1100
L148.3800 91.1100
" />
<path d="M138.0000 114.9200
L135.7990 112.7190
" />
<path d="M135.7990 112.7190
L135.7990 94.2010
" />
<path d="M135.7990 94.2010
L138.8900 91.1100
" />
<path d="M138.0000 96.0000
L138.0000 100.9200
" />
<path d="M140.3500 93.6500
L138.0000 96.0000
" />
<path d="M148.3800 93.6500
L140.3500 93.6500
" />
<path d="M140.0000 104.0000
L138.0000 106.0000
" />
<path d="M142.0000 104.0000
L140.0000 104.0000
" />
<path d="M144.0000 96.0000
L144.0000 102.0000
" />
<path d="M148.3800 96.1900
L144.1900 96.1900
" />
<path d="M144.1900 96.1900
L144.0000 96.0000
" />
<path d="M144.0000 102.0000
L142.0000 104.0000
" />
<path d="M150.7300 101.2700
L148.3800 101.2700
" />
<path d="M152.2030 99.7970
L150.7300 101.2700
" />
<path d="M152.2030 66.0000
L152.2030 99.7970
" />
<path d="M155.9696 64.9696
L153.2334 64.9696
" />
<path d="M156.0000 65.0000
L155.9696 64.9696
" />
<path d="M153.2334 64.9696
L152.2030 66.0000
" />
<path d="M167.8858 88.6550
L169.3000 88.6550
" />
<path d="M164.0858 84.8551
L167.8858 88.6550
" />
<path d="M164.0000 72.0000
L164.0000 83.8283
" />
<path d="M164.0858 83.9142
L164.0858 84.8551
" />
<path d="M162.0000 70.0000
L164.0000 72.0000
" />
<path d="M164.0000 83.8283
L164.0858 83.9142
" />
<path d="M156.0000 70.0000
L162.0000 70.0000
" />
<path d="M206.4020 144.0000
L206.2010 143.7990
" />
<path d="M220.0000 144.0000
L206.4020 144.0000
" />
<path d="M222.0000 142.0000
L220.0000 144.0000
" />
<path d="M220.0000 70.0000
L222.0000 72.0000
" />
<path d="M192.0000 72.0000
L194.0000 70.0000
" />
<path d="M192.0000 109.3140
L192.0000 72.0000
" />
<path d="M194.0000 70.0000
L220.0000 70.0000
" />
<path d="M194.3610 109.3140
L192.0000 109.3140
" />
<path d="M222.0000 72.0000
L222.0000 142.0000
" />
<path d="M194.7000 108.9750
L194.3610 109.3140
" />
<path d="M154.0000 128.0000
L156.0000 130.0000
" />
<path d="M154.0000 108.0000
L154.0000 128.0000
" />
<path d="M156.0000 130.0000
L169.5000 130.0000
" />
<path d="M152.3500 106.3500
L154.0000 108.0000
" />
<path d="M148.3800 106.3500
L152.3500 106.3500
" />
<path d="M128.0000 124.0000
L138.0000 124.0000
" />
<path d="M126.0000 62.0000
L126.0000 122.0000
" />
<path d="M128.0000 60.0000
L126.0000 62.0000
" />
<path d="M126.0000 122.0000
L128.0000 124.0000
" />
<path d="M156.0000 60.0000
L128.0000 60.0000
" />
<path d="M156.6127 67.5000
L158.2010 65.9117
" />
<path d="M158.2010 62.2010
L156.0000 60.0000
" />
<path d="M156.0000 67.5000
L156.6127 67.5000
" />
<path d="M158.2010 65.9117
L158.2010 62.2010
" />
<path d="M138.0000 142.0000
L138.0000 124.0000
" />
<path d="M140.0000 144.0000
L138.0000 142.0000
" />
<path d="M140.0873 143.9127
L140.0000 144.0000
" />
<path d="M189.9127 143.9127
L140.0873 143.9127
" />
<path d="M190.0000 144.0000
L189.9127 143.9127
" />
<path d="M206.0000 144.0000
L190.0000 144.0000
" />
<path d="M206.2010 143.7990
L206.0000 144.0000
" />
<path d="M187.7990 134.0000
L188.0000 134.2010
" />
<path d="M194.7000 111.5150
L187.7990 118.4160
" />
<path d="M187.7990 118.4160
L187.7990 134.0000
" />
<path d="M194.7000 111.5150
L194.4603 111.7547
" />
<path d="M196.0000 136.0000
L195.8100 136.1900
" />
<path d="M192.8134 136.1900
L190.8244 134.2010
" />
<path d="M172.0000 132.0000
L174.2010 134.2010
" />
<path d="M172.0000 130.0000
L172.0000 132.0000
" />
<path d="M204.0000 136.5000
L202.5000 138.0000
" />
<path d="M195.8100 136.1900
L192.8134 136.1900
" />
<path d="M188.0000 134.2010
L189.0883 134.2010
" />
<path d="M198.0000 138.0000
L196.0000 136.0000
" />
<path d="M174.2010 134.2010
L188.0000 134.2010
" />
<path d="M202.5000 138.0000
L198.0000 138.0000
" />
<path d="M164.0000 88.0000
L160.0000 88.0000
" />
<path d="M160.0000 74.0000
L158.5000 72.5000
" />
<path d="M169.3000 91.1950
L167.1950 91.1950
" />
<path d="M167.1950 91.1950
L164.0000 88.0000
" />
<path d="M158.5000 72.5000
L156.0000 72.5000
" />
<path d="M160.0000 88.0000
L160.0000 74.0000
" />
<path d="M140.8900 108.8900
L138.0000 106.0000
" />
<path d="M206.0000 134.0000
L206.2010 134.2010
" />
<path d="M169.2150 108.8900
L169.3000 108.9750
" />
<path d="M138.0000 124.0000
L138.0000 120.0000
" />
<path d="M204.0000 134.0000
L206.0000 134.0000
" />
<path d="M163.6200 108.8900
L166.0000 108.8900
" />
<path d="M166.0000 108.8900
L169.2150 108.8900
" />
<path d="M148.3800 108.8900
L140.8900 108.8900
" />
<path d="M206.2010 134.2010
L206.2010 143.7990
" />
<path d="M189.9127 143.9127
L189.9127 136.4020
" />
<path d="M169.3000 86.1150
L169.4150 86.0000
" />
<path d="M174.0000 86.0000
L174.5000 86.5000
" />
<path d="M169.4150 86.0000
L174.0000 86.0000
" />
<path d="M174.5000 86.5000
L174.5000 130.0000
" />
<path d="M169.3000 83.5750
L176.0000 83.5750
" />
<path d="M176.0000 83.5750
L177.0000 84.5750
" />
<path d="M177.0000 84.5750
L177.0000 130.0000
" />
<path d="M163.6200 103.8100
L166.2723 103.8100
" />
<path d="M168.7273 101.3550
L169.3000 101.3550
" />
<path d="M166.2723 103.8100
L168.7273 101.3550
" />
<path d="M167.1850 98.8150
L169.3000 98.8150
" />
<path d="M163.6200 101.2700
L164.7300 101.2700
" />
<path d="M164.7300 101.2700
L167.1850 98.8150
" />
<path d="M169.2150 106.3500
L169.3000 106.4350
" />
<path d="M163.6200 106.3500
L169.2150 106.3500
" />
<path d="M169.2150 96.1900
L169.3000 96.2750
" />
<path d="M163.6200 96.1900
L169.2150 96.1900
" />
<path d="M169.2150 93.6500
L169.3000 93.7350
" />
<path d="M163.6200 93.6500
L169.2150 93.6500
" />
<path d="M196.8207 128.6900
L195.7117 129.7990
" />
<path d="M195.7117 129.7990
L190.0000 129.7990
" />
<path d="M204.0000 128.6900
L200.0000 128.6900
" />
<path d="M194.7000 86.1150
L196.1142 86.1150
" />
<path d="M200.0000 128.6900
L196.8207 128.6900
" />
<path d="M200.0000 90.0008
L200.0000 128.6900
" />
<path d="M196.1142 86.1150
L200.0000 90.0008
" />
<path d="M196.0000 132.0000
L190.0000 132.0000
" />
<path d="M162.0000 91.1100
L163.6200 91.1100
" />
<path d="M160.0000 93.1100
L162.0000 91.1100
" />
<path d="M160.0000 111.7160
L160.0000 93.1100
" />
<path d="M164.2840 116.0000
L160.0000 111.7160
" />
<path d="M170.2307 116.0000
L164.2840 116.0000
" />
<path d="M171.4687 114.7621
L170.2307 116.0000
" />
<path d="M171.5010 113.6646
L171.4687 113.6970
" />
<path d="M171.4687 113.6970
L171.4687 114.7621
" />
<path d="M171.5010 105.5010
L171.5010 113.6646
" />
</g> 
</svg>
